# Blender v2.79 (sub 0) OBJ File: ''
# www.blender.org
mtllib box.mtl
o Box_Booleanovsk__operace_Krychle1
v 25.000000 0.029186 50.000000
v 25.000000 31.338562 50.000004
v -25.000000 31.338562 50.000004
v -25.000000 0.029186 50.000000
v 25.000000 0.029202 -50.000000
v 25.000000 31.338577 -49.999996
v -25.000000 0.029202 -50.000000
v -25.000000 31.338577 -49.999996
v 24.000000 31.338577 -48.999996
v 24.000000 31.338562 49.000004
v -24.000000 31.338562 49.000004
v -24.000000 31.338577 -48.999996
vt 1.000000 0.000000
vt 1.000000 1.000000
vt 0.000000 1.000000
vt 0.000000 0.000000
vt 1.000000 0.000000
vt 1.000000 1.000000
vt 0.000000 1.000000
vt 0.000000 0.000000
vt 1.000000 0.000000
vt 1.000000 1.000000
vt 0.000000 1.000000
vt 0.000000 0.000000
vt 1.000000 0.000000
vt 1.000000 1.000000
vt 0.000000 1.000000
vt 0.000000 0.000000
vt 0.980000 0.990000
vt 0.980000 0.010000
vt 1.000000 0.000000
vt 0.000000 0.000000
vt 0.020000 0.010000
vt 0.020000 0.990000
vt 1.000000 1.000000
vt 0.000000 1.000000
vn 0.0000 -0.0000 1.0000
vn 1.0000 0.0000 0.0000
vn 0.0000 0.0000 -1.0000
vn -1.0000 -0.0000 0.0000
vn 0.0000 1.0000 0.0000
vn 0.0000 -1.0000 -0.0000
usemtl Nov__3
s off
f 1/1/1 2/2/1 3/3/1 4/4/1
f 5/5/2 6/6/2 2/7/2 1/8/2
f 7/9/3 8/10/3 6/11/3 5/12/3
f 4/13/4 3/14/4 8/15/4 7/16/4
f 9/17/5 10/18/5 2/19/5 6/6/5
f 3/20/5 2/19/5 10/18/5 11/21/5
f 8/15/5 3/20/5 11/21/5 12/22/5
f 12/22/5 9/17/5 6/6/5 8/15/5
f 5/5/6 1/23/6 4/24/6 7/16/6
o Box_Krychle
v 24.981180 18.184801 76.390297
v 24.981180 18.636526 76.604645
v -25.018820 18.636526 76.604645
v -25.018820 18.184801 76.390297
v 24.981180 30.782200 49.841938
v 24.981180 31.233925 50.056282
v -25.018820 30.782200 49.841938
v -25.018820 31.233925 50.056282
vt 1.000000 0.000000
vt 1.000000 1.000000
vt 0.000000 1.000000
vt 0.000000 0.000000
vt 1.000000 0.000000
vt 1.000000 1.000000
vt 0.000000 1.000000
vt 0.000000 0.000000
vt 1.000000 0.000000
vt 1.000000 1.000000
vt 0.000000 1.000000
vt 0.000000 0.000000
vt 1.000000 0.000000
vt 1.000000 1.000000
vt 0.000000 1.000000
vt 0.000000 0.000000
vt 1.000000 0.000000
vt 0.000000 0.000000
vt 1.000000 1.000000
vt 0.000000 1.000000
vn 0.0000 -0.4287 0.9034
vn 1.0000 0.0000 0.0000
vn 0.0000 0.4287 -0.9035
vn -1.0000 0.0000 0.0000
vn 0.0000 0.9034 0.4287
vn 0.0000 -0.9034 -0.4287
usemtl Nov__3
s off
f 13/25/7 14/26/7 15/27/7 16/28/7
f 17/29/8 18/30/8 14/31/8 13/32/8
f 19/33/9 20/34/9 18/35/9 17/36/9
f 16/37/10 15/38/10 20/39/10 19/40/10
f 14/41/11 18/30/11 20/39/11 15/42/11
f 17/29/12 13/43/12 16/44/12 19/40/12
o Box_Krychle_3
v 48.202930 22.278696 50.000004
v 48.373940 22.748541 50.000004
v 24.881624 31.299046 50.000004
v 24.710615 30.829199 50.000004
v 48.202930 22.278711 -49.999996
v 48.373940 22.748556 -49.999996
v 24.710615 30.829214 -49.999996
v 24.881624 31.299061 -49.999996
vt 1.000000 0.000000
vt 1.000000 1.000000
vt 0.000000 1.000000
vt 0.000000 0.000000
vt 1.000000 0.000000
vt 1.000000 1.000000
vt 0.000000 1.000000
vt 0.000000 0.000000
vt 1.000000 0.000000
vt 1.000000 1.000000
vt 0.000000 1.000000
vt 0.000000 0.000000
vt 1.000000 0.000000
vt 1.000000 1.000000
vt 0.000000 1.000000
vt 0.000000 0.000000
vt 1.000000 0.000000
vt 0.000000 0.000000
vt 1.000000 1.000000
vt 0.000000 1.000000
vn -0.0000 0.0000 1.0000
vn 0.9397 -0.3420 -0.0000
vn 0.0000 0.0000 -1.0000
vn -0.9397 0.3420 0.0000
vn 0.3420 0.9397 0.0000
vn -0.3420 -0.9397 -0.0000
usemtl Nov__3
s off
f 21/45/13 22/46/13 23/47/13 24/48/13
f 25/49/14 26/50/14 22/51/14 21/52/14
f 27/53/15 28/54/15 26/55/15 25/56/15
f 24/57/16 23/58/16 28/59/16 27/60/16
f 22/61/17 26/50/17 28/59/17 23/62/17
f 25/49/18 21/63/18 24/64/18 27/60/18
o Box_Krychle_1
v 24.782970 30.999138 -49.889565
v 24.782970 31.410631 -50.173595
v -25.217030 31.410631 -50.173595
v -25.217030 30.999138 -49.889565
v 24.782970 14.306281 -74.073418
v 24.782970 14.717773 -74.357445
v -25.217030 14.306281 -74.073418
v -25.217030 14.717773 -74.357445
vt 1.000000 0.000000
vt 1.000000 1.000000
vt 0.000000 1.000000
vt 0.000000 0.000000
vt 1.000000 0.000000
vt 1.000000 1.000000
vt 0.000000 1.000000
vt 0.000000 0.000000
vt 1.000000 0.000000
vt 1.000000 1.000000
vt 0.000000 1.000000
vt 0.000000 0.000000
vt 1.000000 0.000000
vt 1.000000 1.000000
vt 0.000000 1.000000
vt 0.000000 0.000000
vt 1.000000 0.000000
vt 0.000000 0.000000
vt 1.000000 1.000000
vt 0.000000 1.000000
vn 0.0000 0.5681 0.8230
vn 1.0000 0.0000 0.0000
vn 0.0000 -0.5681 -0.8230
vn -1.0000 -0.0000 0.0000
vn 0.0000 0.8230 -0.5681
vn 0.0000 -0.8230 0.5681
usemtl Nov__3
s off
f 29/65/19 30/66/19 31/67/19 32/68/19
f 33/69/20 34/70/20 30/71/20 29/72/20
f 35/73/21 36/74/21 34/75/21 33/76/21
f 32/77/22 31/78/22 36/79/22 35/80/22
f 30/81/23 34/70/23 36/79/23 31/82/23
f 33/69/24 29/83/24 32/84/24 35/80/24
o Box_Booleanovsk__operace_Krychle_11
v -24.000000 1.033903 49.000000
v -24.000000 31.338562 49.000004
v 24.000000 31.338562 49.000004
v 24.000000 1.033903 49.000000
v 24.000000 31.338577 -48.999996
v 24.000000 1.033919 -49.000000
v -24.000000 31.338577 -48.999996
v -24.000000 1.033919 -49.000000
vt 0.000000 0.000000
vt 0.000000 0.942449
vt 1.000000 0.942449
vt 1.000000 0.000000
vt 0.000000 0.000000
vt 0.000000 0.942449
vt 1.000000 0.942449
vt 1.000000 0.000000
vt 0.000000 0.000000
vt 0.000000 0.942449
vt 1.000000 0.942449
vt 1.000000 0.000000
vt 0.000000 0.000000
vt 0.000000 0.942449
vt 1.000000 0.942449
vt 1.000000 0.000000
vt 1.000000 1.000000
vt 0.000000 1.000000
vn 0.0000 0.0000 -1.0000
vn -1.0000 0.0000 0.0000
vn 0.0000 -0.0000 1.0000
vn 1.0000 -0.0000 0.0000
vn 0.0000 1.0000 0.0000
usemtl Nov__3
s off
f 37/85/25 38/86/25 39/87/25 40/88/25
f 40/89/26 39/90/26 41/91/26 42/92/26
f 42/93/27 41/94/27 43/95/27 44/96/27
f 44/97/28 43/98/28 38/99/28 37/100/28
f 40/101/29 42/92/29 44/97/29 37/102/29
o Box_Krychle_2
v -24.826544 30.799763 50.000004
v -24.997553 31.269609 50.000004
v -48.489868 22.719107 50.000004
v -48.318859 22.249260 50.000004
v -24.826544 30.799778 -49.999996
v -24.997553 31.269625 -49.999996
v -48.318859 22.249275 -49.999996
v -48.489868 22.719122 -49.999996
vt 1.000000 0.000000
vt 1.000000 1.000000
vt 0.000000 1.000000
vt 0.000000 0.000000
vt 1.000000 0.000000
vt 1.000000 1.000000
vt 0.000000 1.000000
vt 0.000000 0.000000
vt 1.000000 0.000000
vt 1.000000 1.000000
vt 0.000000 1.000000
vt 0.000000 0.000000
vt 1.000000 0.000000
vt 1.000000 1.000000
vt 0.000000 1.000000
vt 0.000000 0.000000
vt 1.000000 0.000000
vt 0.000000 0.000000
vt 1.000000 1.000000
vt 0.000000 1.000000
vn -0.0000 0.0000 1.0000
vn 0.9397 0.3420 0.0000
vn 0.0000 0.0000 -1.0000
vn -0.9397 -0.3420 -0.0000
vn -0.3420 0.9397 0.0000
vn 0.3420 -0.9397 -0.0000
usemtl Nov__3
s off
f 45/103/30 46/104/30 47/105/30 48/106/30
f 49/107/31 50/108/31 46/109/31 45/110/31
f 51/111/32 52/112/32 50/113/32 49/114/32
f 48/115/33 47/116/33 52/117/33 51/118/33
f 46/119/34 50/108/34 52/117/34 47/120/34
f 49/107/35 45/121/35 48/122/35 51/118/35
